<?xml version="1.0" encoding="UTF-8"?>
<svg version="1.1" xmlns="http://www.w3.org/2000/svg" width="200" height="200">
<path d="M0 0 C2.19230841 -0.00540094 4.38461212 -0.01317498 6.5769043 -0.02319336 C11.15297433 -0.03493213 15.72778798 -0.01802809 20.30371094 0.01953125 C26.13789392 0.06511239 31.96913218 0.03883784 37.8032074 -0.00904846 C42.32472491 -0.03810667 46.84555656 -0.02868875 51.36709595 -0.00802612 C53.51665607 -0.0027305 55.66628068 -0.00909272 57.81576538 -0.02786255 C69.02715734 -0.10430411 78.80566175 -0.16771051 88.10446167 6.70065308 C91.7911034 10.64410066 92.1251743 13.87499358 92.00390625 19.12890625 C92.07006008 21.17986369 92.13665269 23.23080702 92.20361328 25.28173828 C92.21660461 26.37560852 92.22959595 27.46947876 92.24298096 28.59649658 C92.36728231 34.79377558 92.85701543 40.96939509 93.27734375 47.15234375 C93.44166748 49.77525284 93.60375958 52.39830264 93.76367188 55.02148438 C93.84415771 56.33205811 93.92464355 57.64263184 94.00756836 58.99291992 C94.17197036 61.69091103 94.33124944 64.38914612 94.48706055 67.08764648 C94.71619494 71.04757799 94.96530612 75.00614424 95.21484375 78.96484375 C95.2805809 80.16382797 95.34631805 81.36281219 95.41404724 82.59812927 C95.83661671 89.0828328 96.87114424 94.06750745 99.3125 100.0625 C99.61189775 102.38617661 99.83520107 104.7207147 99.98828125 107.05859375 C101.10746084 118.60199298 105.57387348 129.29866221 109.5 140.125 C111.01123 144.29731581 112.50167808 148.47624985 113.98046875 152.66015625 C114.3293364 153.60190201 114.67820404 154.54364777 115.03764343 155.51393127 C118.63300945 165.69246905 116.17484119 170.44106173 112.3125 181.0625 C56.2125 181.0625 0.1125 181.0625 -57.6875 181.0625 C-63.53777737 164.68172335 -63.53777737 164.68172335 -60.22875977 155.48266602 C-59.9349794 154.65392471 -59.64119904 153.82518341 -59.33851624 152.97132874 C-59.02184494 152.09520432 -58.70517365 151.2190799 -58.37890625 150.31640625 C-57.70712953 148.40709544 -57.0359243 146.49758347 -56.36523438 144.58789062 C-55.31425494 141.61739201 -54.25856974 138.64882637 -53.19213867 135.68383789 C-49.35789195 124.99038071 -45.9430348 114.93460241 -45.15209961 103.55053711 C-44.6875 100.0625 -44.6875 100.0625 -43.22729492 96.67602539 C-40.54243209 89.93463732 -40.74825551 82.32277554 -40.3359375 75.15625 C-40.23166847 73.50525745 -40.12623069 71.85433833 -40.01968384 70.20349121 C-39.74304103 65.87372344 -39.48075466 61.54320946 -39.22198486 57.21234131 C-38.85498478 51.1146343 -38.46823316 45.01814258 -38.08389282 38.92150879 C-37.87965628 35.68082565 -37.68071298 32.43988754 -37.48617554 29.1986084 C-37.39493409 27.70857648 -37.30367716 26.2185455 -37.21240234 24.72851562 C-37.13484711 23.43804321 -37.05729187 22.1475708 -36.97738647 20.81799316 C-36.88172394 19.57868042 -36.7860614 18.33936768 -36.6875 17.0625 C-36.6629285 16.37004181 -36.63835701 15.67758362 -36.61304092 14.96414185 C-36.3759093 11.31798112 -35.94707421 9.36446454 -33.54370117 6.56860352 C-22.82628205 -0.35922131 -12.4718386 -0.10890717 0 0 Z M-28.85031128 10.47492981 C-32.96664265 16.27253581 -32.63687268 23.37781443 -32.85546875 30.23046875 C-32.94728003 31.91507554 -33.04373445 33.59943509 -33.14460754 35.28352356 C-33.39665189 39.70121451 -33.58525941 44.11940101 -33.76062012 48.54071045 C-33.95063617 53.04157638 -34.20180586 57.53898822 -34.44726562 62.03710938 C-34.79777343 68.60444887 -35.12339052 75.17216376 -35.40307617 81.74291992 C-35.43254837 82.42819763 -35.46202057 83.11347534 -35.49238586 83.81951904 C-35.61961991 86.90561775 -35.6875 89.97267335 -35.6875 93.0625 C5.8925 93.0625 47.4725 93.0625 90.3125 93.0625 C89.673125 82.811875 89.03375 72.56125 88.375 62 C88.17527588 58.79531006 87.97555176 55.59062012 87.76977539 52.28881836 C87.60826073 49.70165859 87.44672253 47.11450029 87.28515625 44.52734375 C87.16327942 42.5696405 87.16327942 42.5696405 87.03894043 40.5723877 C86.87851012 38.00526372 86.7129391 35.43845438 86.54153442 32.87203979 C86.38159973 30.21183893 86.25579258 27.5666901 86.1701355 24.90457153 C86.1417607 24.22453095 86.11338591 23.54449038 86.08415127 22.84384251 C86.00641217 20.95992359 85.94647194 19.07529444 85.88768005 17.19068909 C84.95270563 12.10571304 82.24241436 10.71177505 78.14056396 7.8478241 C73.85062525 5.52241786 69.86141028 5.47790646 65.06347656 5.49731445 C63.71319366 5.47957222 63.71319366 5.47957222 62.33563232 5.46147156 C59.37454513 5.42871003 56.41438122 5.4256274 53.453125 5.42578125 C51.38197459 5.41545768 49.31082775 5.40439351 47.23968506 5.3926239 C42.90220734 5.37321474 38.56505188 5.3697618 34.22753906 5.3762207 C28.69151515 5.38220856 23.1571728 5.33802381 17.62149429 5.28033161 C13.34380595 5.24320719 9.0665179 5.2384391 4.78868866 5.24260521 C2.74907548 5.23974699 0.70944439 5.2257821 -1.33000946 5.20012856 C-15.90692786 4.7124971 -15.90692786 4.7124971 -28.85031128 10.47492981 Z M-36.6875 97.0625 C-40.05643239 105.58815835 -40.05643239 105.58815835 -39.6875 113.0625 C4.5325 113.0625 48.7525 113.0625 94.3125 113.0625 C94.68143239 105.58815835 94.68143239 105.58815835 91.3125 97.0625 C49.0725 97.0625 6.8325 97.0625 -36.6875 97.0625 Z M-40.6875 117.0625 C-50.78953619 139.63115921 -50.78953619 139.63115921 -55.6875 163.0625 C-0.9075 163.0625 53.8725 163.0625 110.3125 163.0625 C106.06895286 147.50282716 100.5431899 132.31867889 95.3125 117.0625 C50.4325 117.0625 5.5525 117.0625 -40.6875 117.0625 Z M-55.6875 167.0625 C-54.6975 170.0325 -53.7075 173.0025 -52.6875 176.0625 C0.1125 176.0625 52.9125 176.0625 107.3125 176.0625 C108.3025 173.0925 109.2925 170.1225 110.3125 167.0625 C55.5325 167.0625 0.7525 167.0625 -55.6875 167.0625 Z " fill="#000000" transform="translate(72.6875,8.9375)"/>
<path d="M0 0 C0.95326172 0.03077637 1.90652344 0.06155273 2.88867188 0.09326172 C13.41396599 0.54525671 13.41396599 0.54525671 17.6875 4.9375 C21.76333163 11.19681286 20.6236058 19.07959205 20.62280273 26.28955078 C20.62498628 28.48620061 20.64316078 30.68234527 20.66210938 32.87890625 C20.66504457 34.29166497 20.66702852 35.70442605 20.66796875 37.1171875 C20.67207764 38.38933105 20.67618652 39.66147461 20.68041992 40.97216797 C20.33943918 46.09955881 19.77464297 50.25171803 16.125 54 C11.89878145 56.55538796 7.88870509 56.75026173 3.02392578 56.77026367 C1.43670212 56.77983345 1.43670212 56.77983345 -0.18258667 56.78959656 C-1.31600494 56.79070938 -2.44942322 56.7918222 -3.6171875 56.79296875 C-4.79209747 56.79629715 -5.96700745 56.79962555 -7.17752075 56.80305481 C-9.66049814 56.80811269 -12.14348231 56.81046349 -14.62646484 56.81030273 C-18.41645558 56.81248787 -22.20615454 56.83065229 -25.99609375 56.84960938 C-28.41145734 56.85254383 -30.82682231 56.85452828 -33.2421875 56.85546875 C-34.37155731 56.86265427 -35.50092712 56.86983978 -36.66452026 56.87724304 C-50.28983164 56.83786129 -50.28983164 56.83786129 -54.9375 52.3125 C-58.79261112 45.93673931 -57.74860648 38.17647864 -57.74780273 30.96044922 C-57.74998628 28.76379939 -57.76816078 26.56765473 -57.78710938 24.37109375 C-57.79004457 22.95833503 -57.79202852 21.54557395 -57.79296875 20.1328125 C-57.79707764 18.86066895 -57.80118652 17.58852539 -57.80541992 16.27783203 C-57.47886631 11.36738463 -56.77507737 7.16093133 -53.6875 3.25 C-50.31506836 0.67108169 -47.00993552 0.49640988 -42.8515625 0.30859375 C-41.9440625 0.26653809 -41.0365625 0.22448242 -40.1015625 0.18115234 C-39.13992187 0.14199707 -38.17828125 0.1028418 -37.1875 0.0625 C-35.69476563 -0.0001001 -35.69476563 -0.0001001 -34.171875 -0.06396484 C-22.75446844 -0.51806624 -11.41650286 -0.42895448 0 0 Z " fill="#000000" transform="translate(118.5625,33.375)"/>
<path d="M0 0 C28.05 0 56.1 0 85 0 C86.15371852 2.30743705 86.29359545 4.01870368 86.53515625 6.5859375 C86.62240967 7.51188721 86.70966309 8.43783691 86.79956055 9.3918457 C86.88633057 10.37628662 86.97310059 11.36072754 87.0625 12.375 C87.15120361 13.36910889 87.23990723 14.36321777 87.33129883 15.38745117 C88.54626939 29.66073429 88.54626939 29.66073429 88 36 C86.09158556 37.90841444 83.27055412 37.12675361 80.73094177 37.13552856 C79.82908646 37.13350433 78.92723114 37.1314801 77.99804688 37.12939453 C77.0534108 37.13114685 76.10877472 37.13289917 75.13551331 37.13470459 C71.9965738 37.1391248 68.85769013 37.13618452 65.71875 37.1328125 C63.54781076 37.13348549 61.3768716 37.13445547 59.20593262 37.13571167 C54.64948817 37.13718887 50.09306328 37.13503337 45.53662109 37.13037109 C39.68173414 37.1246738 33.82689302 37.12795268 27.97200775 37.13394356 C23.48719942 37.13754857 19.00240204 37.13641086 14.51759338 37.13381577 C12.35811864 37.13314633 10.19864291 37.1339755 8.03916931 37.13629532 C5.02673692 37.13882086 2.01437987 37.13498264 -0.99804688 37.12939453 C-2.35082985 37.13243088 -2.35082985 37.13243088 -3.73094177 37.13552856 C-9.88573769 37.11426231 -9.88573769 37.11426231 -11 36 C-9.443651 23.54920797 -4.22024377 11.81668257 0 0 Z M3 4 C2.34 6.31 1.68 8.62 1 11 C3.64 11 6.28 11 9 11 C9.66 8.69 10.32 6.38 11 4 C8.36 4 5.72 4 3 4 Z M15 4 C14.34 6.31 13.68 8.62 13 11 C15.64 11 18.28 11 21 11 C21.66 8.69 22.32 6.38 23 4 C20.36 4 17.72 4 15 4 Z M27 4 C26.34 6.31 25.68 8.62 25 11 C29.00254456 11.09181134 29.00254456 11.09181134 33 11 C34.35618499 9.87465895 34.35618499 9.87465895 34.0625 6.9375 C34.041875 5.968125 34.02125 4.99875 34 4 C31.69 4 29.38 4 27 4 Z M38 4 C37.67 6.31 37.34 8.62 37 11 C39.97 11 42.94 11 46 11 C46 8.69 46 6.38 46 4 C43.36 4 40.72 4 38 4 Z M50 4 C50 6.31 50 8.62 50 11 C52.64 11 55.28 11 58 11 C58 8.69 58 6.38 58 4 C55.36 4 52.72 4 50 4 Z M62 4 C62 6.31 62 8.62 62 11 C64.64 11 67.28 11 70 11 C70 8.69 70 6.38 70 4 C67.36 4 64.72 4 62 4 Z M74 4 C74 6.31 74 8.62 74 11 C76.64 11 79.28 11 82 11 C82 8.69 82 6.38 82 4 C79.36 4 76.72 4 74 4 Z M-1 15 C-1.66 17.31 -2.32 19.62 -3 22 C-0.03 22 2.94 22 6 22 C6.66 19.69 7.32 17.38 8 15 C5.03 15 2.06 15 -1 15 Z M12 15 C11.34 17.31 10.68 19.62 10 22 C12.97 22 15.94 22 19 22 C19.33 19.69 19.66 17.38 20 15 C17.36 15 14.72 15 12 15 Z M24 15 C23.67 17.31 23.34 19.62 23 22 C25.97 22 28.94 22 32 22 C32.33 19.69 32.66 17.38 33 15 C30.03 15 27.06 15 24 15 Z M37 15 C36.67 17.31 36.34 19.62 36 22 C38.97 22 41.94 22 45 22 C45 19.69 45 17.38 45 15 C42.36 15 39.72 15 37 15 Z M49 15 C49 17.31 49 19.62 49 22 C51.97 22 54.94 22 58 22 C58 19.69 58 17.38 58 15 C55.03 15 52.06 15 49 15 Z M62 15 C61.67 17.31 61.34 19.62 61 22 C64.3 22 67.6 22 71 22 C70.67 19.69 70.34 17.38 70 15 C67.36 15 64.72 15 62 15 Z M74 15 C74 17.31 74 19.62 74 22 C76.97 22 79.94 22 83 22 C83 19.69 83 17.38 83 15 C80.03 15 77.06 15 74 15 Z M-5 26 C-5.66 28.31 -6.32 30.62 -7 33 C-3.7 33 -0.4 33 3 33 C3.33 30.69 3.66 28.38 4 26 C1.03 26 -1.94 26 -5 26 Z M9 26 C6.7763932 29.7018576 6.7763932 29.7018576 7 33 C9.97 33 12.94 33 16 33 C16.66 30.69 17.32 28.38 18 26 C15.03 26 12.06 26 9 26 Z M22 26 C21.34 28.31 20.68 30.62 20 33 C23.3 33 26.6 33 30 33 C30.33 30.69 30.66 28.38 31 26 C28.03 26 25.06 26 22 26 Z M35 26 C34.67 28.31 34.34 30.62 34 33 C37.3 33 40.6 33 44 33 C44 30.69 44 28.38 44 26 C41.03 26 38.06 26 35 26 Z M48 26 C48 28.31 48 30.62 48 33 C50.97 33 53.94 33 57 33 C57 30.69 57 28.38 57 26 C54.03 26 51.06 26 48 26 Z M61 26 C61 28.31 61 30.62 61 33 C64.3 33 67.6 33 71 33 C71 30.69 71 28.38 71 26 C67.7 26 64.4 26 61 26 Z M75 26 C75 28.31 75 30.62 75 33 C77.97 33 80.94 33 84 33 C84 30.69 84 28.38 84 26 C81.03 26 78.06 26 75 26 Z " fill="#000000" transform="translate(34,131)"/>
<path d="M0 0 C35.64 0 71.28 0 108 0 C110.31015594 24.25663738 110.31015594 24.25663738 110.88671875 33.515625 C110.95284866 34.54894958 111.01897858 35.58227417 111.08711243 36.64691162 C111.22230625 38.77686938 111.35580406 40.9069355 111.48754883 43.03710938 C111.69166011 46.31684621 111.9052329 49.59588903 112.11914062 52.875 C112.25056323 54.9635063 112.38144444 57.05204676 112.51171875 59.140625 C112.60848152 60.60897797 112.60848152 60.60897797 112.7071991 62.10699463 C112.7877227 63.44670319 112.7877227 63.44670319 112.86987305 64.81347656 C112.91935593 65.60063049 112.96883881 66.38778442 113.01982117 67.1987915 C113 69 113 69 112 70 C110.49448826 70.09575309 108.9844897 70.12188187 107.47593689 70.12025452 C106.00981209 70.12231651 106.00981209 70.12231651 104.5140686 70.12442017 C103.43297821 70.12082489 102.35188782 70.11722961 101.23803711 70.11352539 C99.54069679 70.11374443 99.54069679 70.11374443 97.80906677 70.1139679 C94.04847329 70.11326819 90.28792863 70.10547311 86.52734375 70.09765625 C83.92802457 70.09579227 81.32870503 70.09436828 78.72938538 70.09336853 C72.57411423 70.08993341 66.4188634 70.08204256 60.26359993 70.07201904 C53.25766654 70.06085694 46.25173233 70.05534721 39.24579227 70.05032361 C24.83051867 70.03985992 10.41525996 70.02226108 -4 70 C-4.95016327 66.53300016 -5.00590706 63.73661715 -4.76220703 60.13330078 C-4.68527618 58.95172394 -4.60834534 57.77014709 -4.52908325 56.55276489 C-4.4395639 55.2798056 -4.35004456 54.00684631 -4.2578125 52.6953125 C-4.16998505 51.38343964 -4.08215759 50.07156677 -3.9916687 48.71994019 C-3.80546835 45.94403435 -3.61505883 43.16846077 -3.42138672 40.39306641 C-3.17408061 36.84733033 -2.93487434 33.30110843 -2.69854927 29.75462532 C-2.47169008 26.35962129 -2.23969215 22.96497749 -2.0078125 19.5703125 C-1.92234161 18.30140167 -1.83687073 17.03249084 -1.74880981 15.72512817 C-1.66557465 14.53724701 -1.58233948 13.34936584 -1.49658203 12.12548828 C-1.42472687 11.08498322 -1.3528717 10.04447815 -1.27883911 8.97244263 C-0.99667993 5.96460782 -0.49665595 2.97993572 0 0 Z M3 3 C1.3036788 22.36705998 1.3036788 22.36705998 -0.125 41.75 C-0.25455078 43.60238281 -0.25455078 43.60238281 -0.38671875 45.4921875 C-0.46792969 46.70648438 -0.54914062 47.92078125 -0.6328125 49.171875 C-0.70387207 50.2247168 -0.77493164 51.27755859 -0.84814453 52.36230469 C-1.05166161 57.23755296 -1 62.12050567 -1 67 C35.3 67 71.6 67 109 67 C109 59.71822151 108.8803143 52.60502936 108.37890625 45.36328125 C108.31468979 44.39899704 108.25047333 43.43471283 108.18431091 42.44120789 C108.04902436 40.42186872 107.91196719 38.40264744 107.77319336 36.38354492 C107.56233003 33.31002247 107.35789165 30.23612099 107.15429688 27.16210938 C107.02121197 25.18747444 106.88776103 23.21286414 106.75390625 21.23828125 C106.6934462 20.32975906 106.63298615 19.42123688 106.57069397 18.48518372 C106.51070724 17.62035873 106.45072052 16.75553375 106.38891602 15.86450195 C106.33784195 15.11602493 106.28676788 14.36754791 106.23414612 13.59638977 C105.91475658 10.05475635 105.44106823 6.52854585 105 3 C71.34 3 37.68 3 3 3 Z " fill="#000000" transform="translate(46,27)"/>
<path d="M0 0 C8.91 0 17.82 0 27 0 C28.59638337 4.4622108 30.18484523 8.92578614 31.75463867 13.3972168 C32.29060504 14.91667901 32.83093125 16.4346108 33.37573242 17.95092773 C34.15921724 20.13395255 34.92672771 22.32204656 35.69140625 24.51171875 C35.93717911 25.18587326 36.18295197 25.86002777 36.43617249 26.55461121 C37.89996848 30.80895757 37.92762199 32.36189003 37 37 C27.43 37 17.86 37 8 37 C5.66796593 30.00389778 3.8409112 23.40721258 2.3125 16.25 C2.08755859 15.23550781 1.86261719 14.22101563 1.63085938 13.17578125 C1.41880859 12.19480469 1.20675781 11.21382812 0.98828125 10.203125 C0.79790283 9.32301758 0.60752441 8.44291016 0.41137695 7.53613281 C0 5 0 5 0 0 Z M4 4 C4.66 6.31 5.32 8.62 6 11 C8.64 11 11.28 11 14 11 C13.34 8.69 12.68 6.38 12 4 C9.36 4 6.72 4 4 4 Z M16 4 C16.66 6.31 17.32 8.62 18 11 C20.64 11 23.28 11 26 11 C25.34 8.69 24.68 6.38 24 4 C21.36 4 18.72 4 16 4 Z M7 15 C7.33 17.31 7.66 19.62 8 22 C10.97 22 13.94 22 17 22 C16.34 19.69 15.68 17.38 15 15 C12.36 15 9.72 15 7 15 Z M19 15 C19.66 17.31 20.32 19.62 21 22 C23.97 22 26.94 22 30 22 C29.34 19.69 28.68 17.38 28 15 C25.03 15 22.06 15 19 15 Z M9 26 C9.66 28.31 10.32 30.62 11 33 C13.97 33 16.94 33 20 33 C19.34 30.69 18.68 28.38 18 26 C15.03 26 12.06 26 9 26 Z M23 26 C23.33 28.31 23.66 30.62 24 33 C27.3 33 30.6 33 34 33 C33.34 30.69 32.68 28.38 32 26 C29.03 26 26.06 26 23 26 Z " fill="#000000" transform="translate(139,131)"/>
<path d="M0 0 C24.42 0 48.84 0 74 0 C74.495 1.98 74.495 1.98 75 4 C49.92 4 24.84 4 -1 4 C-0.67 2.68 -0.34 1.36 0 0 Z " fill="#000000" transform="translate(63,18)"/>
<path d="M0 0 C25.08 0 50.16 0 76 0 C76 0.99 76 1.98 76 3 C50.92 3 25.84 3 0 3 C0 2.01 0 1.02 0 0 Z " fill="#000000" transform="translate(62,109)"/>
</svg>
